# xmcd
#
# Track frame offsets: 
#        150
#        15994
#        32056
#        47851
#        63444
#        78234
#        94449
#        112434
#        128886
#        145369
#        158936
#        176227
#        192455
#
# Disc length: 2906 seconds
#
# Revision: 5
# Processed by: cddbd v1.5.2PL0 Copyright (c) Steve Scherf et al.
# Submitted via: ExactAudioCopyFreeDBPlugin 1.0
#
DISCID=bf0b580d
DTITLE=Dierks Bentley - Black
DYEAR=2016
DGENRE=Country
TTITLE0=Black
TTITLE1=Pick Up
TTITLE2=Dierks Bentley featuring Maren Morris - I'll Be the Moon
TTITLE3=What the Hell Did I Say
TTITLE4=Somewhere on a Beach
TTITLE5=Freedom
TTITLE6=Why Do I Feel
TTITLE7=Roses and a Time Machine
TTITLE8=All the Way to Me
TTITLE9=Dierks Bentley featuring Elle King - Different for Girls
TTITLE10=Dierks Bentley featuring Trombone Shorty - Mardi Gras
TTITLE11=Light It Up
TTITLE12=Can't Be Replaced
EXTD=
EXTT0=
EXTT1=
EXTT2=
EXTT3=
EXTT4=
EXTT5=
EXTT6=
EXTT7=
EXTT8=
EXTT9=
EXTT10=
EXTT11=
EXTT12=
PLAYORDER=
